# xmcd
#
# Track frame offsets: 
#        193
#        35818
#        88768
#        116443
#        166175
#        207943
#
# Disc length: 3329 seconds
#
# Revision: 11
# Processed by: cddbd v1.5.2PL0 Copyright (c) Steve Scherf et al.
# Submitted via: ExactAudioCopy v1.0b4
#
DISCID=4a0cff06
DTITLE=諏訪内晶子 - Zigeunerweizen~Passion
DYEAR=1999
DGENRE=Classical
TTITLE0=Zigeunerweisen Op20
TTITLE1=Carmen Fantasy Op25
TTITLE2=Mazurek Op49
TTITLE3=Violin Concerto in A minor Op53 - Allegro ma non troppo
TTITLE4=Violin Concerto in A minor Op53 - Adagio ma non troppo
TTITLE5=Violin Concerto in A minor Op53 - Finale: Allegro giocoso, ma 
TTITLE5=non troppo
EXTD=Budapest Festival Orchestra/Ivan Fischer
EXTT0=Pablo De sarasate
EXTT1=Pablo De sarasate
EXTT2=Antonin Dvorak
EXTT3=Antonin Dvorak
EXTT4=Antonin Dvorak
EXTT5=Antonin Dvorak
PLAYORDER=
